<svg width="24" height="24" viewBox="0 0 24 24" fill="none" xmlns="http://www.w3.org/2000/svg">
<path d="M14.4899 20.937L19.8709 19.771C19.8709 19.771 17.9299 6.63305 17.9139 6.54605C17.8979 6.46005 17.8279 6.40205 17.7559 6.40205C17.6839 6.40205 16.3169 6.30105 16.3169 6.30105C16.3169 6.30105 15.3679 5.35205 15.2529 5.25105C15.2259 5.22205 15.1959 5.20805 15.1669 5.19305L14.4899 20.937ZM14.9359 5.16505C14.9199 5.16505 14.8929 5.17905 14.8789 5.17905C14.8629 5.17905 14.6619 5.23805 14.3459 5.33705C14.0279 4.41805 13.4669 3.56905 12.4749 3.56905H12.3889C12.0999 3.20805 11.7559 3.05005 11.4529 3.05005C9.13691 3.05005 8.02691 5.94205 7.68291 7.40905C6.79091 7.68405 6.14491 7.88505 6.06991 7.91405C5.56591 8.07205 5.55291 8.08605 5.49591 8.56205C5.43891 8.90605 4.12891 19.0511 4.12891 19.0511L14.2459 20.9501L14.9359 5.16505ZM12.3009 5.86905V5.97105C11.7419 6.14405 11.1229 6.33105 10.5179 6.51805C10.8639 5.19505 11.5099 4.54605 12.0709 4.30105C12.2169 4.67605 12.3009 5.17905 12.3009 5.86905ZM11.3809 3.66905C11.4809 3.66905 11.5819 3.69705 11.6839 3.77105C10.9519 4.11505 10.1449 4.99305 9.81291 6.74905C9.34439 6.89891 8.87402 7.04293 8.40191 7.18105C8.79091 5.84205 9.72691 3.66905 11.3809 3.66905ZM11.7829 11.481C11.7829 11.481 11.1789 11.166 10.4609 11.166C9.38091 11.166 9.33791 11.842 9.33791 12.015C9.33791 12.936 11.7559 13.295 11.7559 15.468C11.7559 17.18 10.6759 18.274 9.20891 18.274C7.45291 18.274 6.56091 17.18 6.56091 17.18L7.03591 15.626C7.03591 15.626 7.95791 16.418 8.73291 16.418C8.82599 16.4218 8.91887 16.4068 9.00601 16.3738C9.09315 16.3409 9.17275 16.2907 9.24005 16.2263C9.30736 16.1619 9.36098 16.0846 9.39773 15.9989C9.43447 15.9133 9.45358 15.8212 9.45391 15.728C9.45391 14.519 7.46791 14.46 7.46791 12.476C7.46791 10.807 8.66291 9.18105 11.0949 9.18105C12.0309 9.18105 12.4899 9.45305 12.4899 9.45305L11.7829 11.481ZM12.7049 4.20005C13.2229 4.26005 13.5549 4.84805 13.7689 5.51105C13.5109 5.59805 13.2219 5.68405 12.9059 5.78405V5.59705C12.9059 5.03605 12.8339 4.57505 12.7049 4.20005Z" fill="white"/>
</svg>
