<svg xmlns="http://www.w3.org/2000/svg" version="1.1" xmlns:xlink="http://www.w3.org/1999/xlink" width="22" height="22" x="0" y="0" viewBox="0 0 32 32" style="enable-background:new 0 0 512 512" xml:space="preserve" class=""><g><path d="M24.184 17A2.995 2.995 0 0 0 27 19c1.654 0 3-1.346 3-3s-1.346-3-3-3a2.995 2.995 0 0 0-2.816 2H23V6h1.184A2.995 2.995 0 0 0 27 8c1.654 0 3-1.346 3-3s-1.346-3-3-3a2.995 2.995 0 0 0-2.816 2H22a1 1 0 0 0-1 1v10h-2v2h2v10a1 1 0 0 0 1 1h2.184A2.995 2.995 0 0 0 27 30c1.654 0 3-1.346 3-3s-1.346-3-3-3a2.995 2.995 0 0 0-2.816 2H23v-9zM10.5 15.325V24l6.894-3.08A1 1 0 0 0 18 20v-8l-.001-.008zM10.394 8.081a.993.993 0 0 0-.788 0s-7.052 3.035-7.08 3.05L10 14.453l7.474-3.322c-.028-.015-7.08-3.05-7.08-3.05zM2 12v8a1 1 0 0 0 .606.92L9.5 24v-8.675l-7.499-3.333L2 12z" fill="#ffffff" opacity="1" data-original="#000000" class=""></path></g></svg>