<svg width="23" height="23" viewBox="0 0 28 28" fill="none" xmlns="http://www.w3.org/2000/svg">
<path fill-rule="evenodd" clip-rule="evenodd" d="M23.7987 10.6703L24.639 11.5103C25.3043 12.1636 25.6661 13.0503 25.6661 13.9836C25.6777 14.9169 25.3159 15.8048 24.6624 16.4686C24.6546 16.4771 24.6468 16.4847 24.639 16.4922C24.6351 16.4959 24.6312 16.4997 24.6274 16.5036L23.7987 17.3319C23.4719 17.6586 23.2852 18.1019 23.2852 18.5698V19.7703C23.2852 21.7069 21.7096 23.2831 19.7723 23.2831H18.5702C18.1033 23.2831 17.6598 23.4686 17.333 23.7953L16.4927 24.6353C15.8042 25.3248 14.9055 25.6619 14.0068 25.6619C13.1082 25.6619 12.2095 25.3248 11.5209 24.6481L10.669 23.7953C10.3422 23.4686 9.89869 23.2831 9.43185 23.2831H8.22975C6.29238 23.2831 4.71681 21.7069 4.71681 19.7703V18.5698C4.71681 18.1019 4.53007 17.6586 4.20329 17.3203L3.36298 16.4919C1.99749 15.1281 1.98582 12.8986 3.35131 11.5231L4.20329 10.6703C4.53007 10.3436 4.71681 9.90026 4.71681 9.42193V8.23193C4.71681 6.29526 6.29238 4.72143 8.22975 4.72143H9.43185C9.89869 4.72143 10.3422 4.53359 10.669 4.20693L11.5093 3.36693C12.8748 1.99143 15.1039 1.99143 16.4811 3.35643L17.333 4.20693C17.6598 4.53359 18.1033 4.72143 18.5702 4.72143H19.7723C21.7096 4.72143 23.2852 6.29526 23.2852 8.23193V9.43476C23.2852 9.90026 23.4719 10.3436 23.7987 10.6703ZM10.9957 18.0203C11.2759 18.0203 11.5326 17.9153 11.7193 17.7169L17.7182 11.7214C18.115 11.3248 18.115 10.6703 17.7182 10.2736C17.3214 9.87809 16.6795 9.87809 16.2827 10.2736L10.2838 16.2703C9.88701 16.6669 9.88701 17.3203 10.2838 17.7169C10.4706 17.9153 10.7273 18.0203 10.9957 18.0203ZM15.9792 16.9936C15.9792 17.5653 16.4344 18.0203 17.0063 18.0203C17.5665 18.0203 18.0216 17.5653 18.0216 16.9936C18.0216 16.4348 17.5665 15.9786 17.0063 15.9786C16.4344 15.9786 15.9792 16.4348 15.9792 16.9936ZM11.0074 9.98193C11.5676 9.98193 12.0228 10.4369 12.0228 10.9969C12.0228 11.5698 11.5676 12.0236 11.0074 12.0236C10.4472 12.0236 9.98038 11.5698 9.98038 10.9969C9.98038 10.4369 10.4472 9.98193 11.0074 9.98193Z" fill="#ffffff"/>
</svg>
