<svg xmlns="http://www.w3.org/2000/svg" version="1.1" xmlns:xlink="http://www.w3.org/1999/xlink" width="22" height="22" x="0" y="0" viewBox="0 0 63.699 63.699" style="enable-background:new 0 0 512 512" xml:space="preserve" class=""><g><path d="M63.663 29.424a4.099 4.099 0 0 0-1.575-2.737l-11.715-9.021V8.608a4.13 4.13 0 0 0-4.125-4.126 4.131 4.131 0 0 0-4.125 4.126v2.705l-7.758-5.975a4.158 4.158 0 0 0-2.517-.856 4.15 4.15 0 0 0-2.519.857L1.606 26.687a4.13 4.13 0 0 0-.751 5.785 4.1 4.1 0 0 0 3.271 1.608 4.08 4.08 0 0 0 1.88-.451V55.09a4.132 4.132 0 0 0 4.126 4.127h18.534V39.732h6.351v19.482h18.271a4.13 4.13 0 0 0 4.125-4.127V33.472a4.094 4.094 0 0 0 2.157.608 4.106 4.106 0 0 0 3.27-1.606 4.085 4.085 0 0 0 .823-3.05zm-3.844.72a.307.307 0 0 1-.435.057L53.6 25.748V55.09c0 .173-.14.312-.311.312H38.832l.001-19.484H24.852v19.484h-14.72a.312.312 0 0 1-.31-.312V25.96L4.315 30.2a.31.31 0 1 1-.38-.49L31.661 8.363c.138-.105.239-.106.379 0l13.899 10.703V8.608a.311.311 0 0 1 .623 0v10.935l13.205 10.166a.3.3 0 0 1 .116.205.297.297 0 0 1-.064.23z" fill="#ffffff" opacity="1" data-original="#000000" class=""></path></g></svg>