<svg id="Layer_1" fill="#ffffff"  enable-background="new 0 0 512 512" height="25" viewBox="0 0 512 512" width="25" xmlns="http://www.w3.org/2000/svg">
<path d="m415.506 258.282v-126.676c0-3.299-2.025-6.26-5.101-7.456l-199.504-77.572c-1.865-.726-3.934-.726-5.799 0l-199.501 77.572c-3.075 1.196-5.101 4.157-5.101 7.456v230.366c0 3.299 2.025 6.26 5.101 7.456l199.502 77.572c.933.363 1.916.544 2.899.544s1.967-.181 2.899-.544l102.873-39.999c16.813 34.857 52.51 58.965 93.731 58.965 57.343 0 103.994-46.651 103.994-103.994.001-54.652-42.374-99.592-95.993-103.69zm-207.504-57.687-43.969-17.096c59.145-22.994 118.286-45.991 177.428-68.989l43.97 17.096zm-111.385-43.31 177.423-68.991 45.347 17.632c-59.143 22.998-118.285 45.996-177.428 68.989zm-14.074 11.694 51.416 19.992v38.337l-21.984-18.725c-2.09-1.779-4.942-2.363-7.563-1.549l-21.868 6.801v-44.856zm125.459-106.362 43.963 17.094-177.422 68.991-43.968-17.096zm-191.502 80.683 50.043 19.458v58.346c0 3.376 1.621 6.585 4.335 8.582 2.716 1.997 6.259 2.589 9.478 1.586l24.6-7.65 27.446 23.376c1.962 1.672 4.431 2.542 6.923 2.542 1.511 0 3.03-.32 4.448-.974 3.758-1.735 6.187-5.531 6.187-9.673v-43.7l50.043 19.458v213.199l-183.503-71.35zm199.502 284.551v-213.2l183.504-71.351v114.982c-53.619 4.098-95.994 49.039-95.994 103.69 0 10.471 1.562 20.582 4.453 30.121zm191.504 22.115c-48.521 0-87.994-39.474-87.994-87.994 0-48.521 39.474-87.995 87.994-87.995s87.994 39.475 87.994 87.995-39.474 87.994-87.994 87.994zm61.682-137.427c-4.14-4.139-9.643-6.418-15.496-6.418s-11.356 2.279-15.497 6.418l-50.521 50.523-13.828-17.401c-4.177-5.254-10.426-8.268-17.144-8.268-4.921 0-9.755 1.689-13.612 4.755-4.576 3.638-7.463 8.841-8.126 14.65-.664 5.809.975 11.529 4.612 16.104l28.42 35.763c4.114 5.74 10.765 9.158 17.845 9.158 5.84 0 11.334-2.279 15.473-6.417l67.875-67.876c8.543-8.544 8.543-22.447-.001-30.991zm-11.314 19.678-67.875 67.876c-1.431 1.431-3.051 1.731-4.159 1.731-1.977 0-3.756-.926-4.883-2.541-.096-.136-.194-.269-.298-.398l-28.558-35.937c-.979-1.231-1.42-2.771-1.241-4.333.178-1.563.955-2.963 2.187-3.942 1.33-1.058 2.722-1.28 3.655-1.28 1.812 0 3.495.811 4.618 2.223l19.406 24.421c1.418 1.785 3.531 2.88 5.808 3.01 2.285.134 4.5-.718 6.112-2.33l56.862-56.864c1.117-1.117 2.604-1.732 4.184-1.732s3.065.615 4.182 1.732c2.307 2.306 2.307 6.058 0 8.364z"/></svg>