<svg version="1.1" xmlns="http://www.w3.org/2000/svg" xmlns:xlink="http://www.w3.org/1999/xlink" width="23" height="23" viewBox="0,0,256,256"><g fill="#ffffff" fill-rule="nonzero" stroke="none" stroke-width="2" stroke-linecap="butt" stroke-linejoin="miter" stroke-miterlimit="10" stroke-dasharray="" stroke-dashoffset="0" font-family="none" font-weight="none" font-size="none" text-anchor="none" style="mix-blend-mode: normal"><g transform="scale(5.12,5.12)"><path d="M9.8125,4c-0.20312,0.03516 -0.38672,0.13672 -0.53125,0.28125l-3.84375,3.875c-0.05469,0.03516 -0.10937,0.07813 -0.15625,0.125c-0.02344,0.01953 -0.04297,0.03906 -0.0625,0.0625c-0.02344,0.03125 -0.04297,0.0625 -0.0625,0.09375c-0.03906,0.05859 -0.07031,0.12109 -0.09375,0.1875c-0.03516,0.08984 -0.05469,0.18359 -0.0625,0.28125c-0.00781,0.07422 -0.00781,0.14453 0,0.21875c0,0.03125 0,0.0625 0,0.09375v35.78125c0,0.55078 0.44922,1 1,1h38c0.55078,0 1,-0.44922 1,-1v-35.84375c0.00391,-0.05078 0.00391,-0.10547 0,-0.15625c0,-0.01172 0,-0.01953 0,-0.03125c0,-0.01953 0,-0.04297 0,-0.0625c0,-0.01953 0,-0.04297 0,-0.0625c-0.00781,-0.04297 -0.01953,-0.08594 -0.03125,-0.125c-0.01562,-0.05469 -0.03906,-0.10547 -0.0625,-0.15625c-0.01172,-0.01172 -0.01953,-0.01953 -0.03125,-0.03125c-0.03516,-0.06641 -0.07812,-0.12891 -0.125,-0.1875c0,-0.01172 0,-0.01953 0,-0.03125c-0.01172,-0.01172 -0.01953,-0.01953 -0.03125,-0.03125h-0.03125c-0.01953,-0.02344 -0.03906,-0.04297 -0.0625,-0.0625l-3.90625,-3.9375c-0.19141,-0.1875 -0.45312,-0.28906 -0.71875,-0.28125h-30c-0.03125,0 -0.0625,0 -0.09375,0c-0.03125,0 -0.0625,0 -0.09375,0zM10.4375,6h29.125l2,2h-11.5625c-0.55078,0 -1,0.44922 -1,1c0,2.27734 -1.72266,4 -4,4c-2.27734,0 -4,-1.72266 -4,-4c0,-0.55078 -0.44922,-1 -1,-1h-11.5625zM7,10h12.1875c0.48828,2.82813 2.84375,5 5.8125,5c2.96875,0 5.32422,-2.17187 5.8125,-5h12.1875v34h-36zM25,19c-5.51172,0 -10,4.48828 -10,10c0,5.51172 4.48828,10 10,10c5.51172,0 10,-4.48828 10,-10c0,-5.51172 -4.48828,-10 -10,-10zM25,21c4.42969,0 8,3.57031 8,8c0,4.42969 -3.57031,8 -8,8c-4.42969,0 -8,-3.57031 -8,-8c0,-4.42969 3.57031,-8 8,-8zM24,23v5.5l-3.59375,2.6875l1.1875,1.625l4,-3l0.40625,-0.3125v-6.5z"></path></g></g></svg>