<svg xmlns="http://www.w3.org/2000/svg" version="1.1" xmlns:xlink="http://www.w3.org/1999/xlink" width="23" height="23" x="0" y="0" viewBox="0 0 128 128" style="enable-background:new 0 0 512 512" xml:space="preserve" class=""><g><path d="M117.979 75.839V35.805a5.863 5.863 0 0 0-.963-3.209l-.026-.036a5.86 5.86 0 0 0-2.146-1.951L66.738 5.258a5.873 5.873 0 0 0-5.476 0L13.156 30.609a5.858 5.858 0 0 0-3.135 5.2V92.2a5.858 5.858 0 0 0 3.135 5.2l48.106 25.351a5.875 5.875 0 0 0 5.476 0l29.644-15.631a19.018 19.018 0 1 0 21.6-31.281Zm-.053 3.656L107.7 89.721 97.472 79.5a16 16 0 0 1 20.454 0ZM93.291 22.643 45.449 46.857a5.845 5.845 0 0 0-3.22 5.24v22.622a.687.687 0 0 1-1.183.475l-4.329-4.519a3.71 3.71 0 0 0-3.437-1.053l-2.823.607a.686.686 0 0 1-.831-.671V44.2a2.858 2.858 0 0 1 1.574-2.563L81.257 16.3Zm-30.63-14.73a2.866 2.866 0 0 1 2.678 0L78 14.586 29.847 38.96a5.921 5.921 0 0 0-1.464 1.059l-13.592-6.88ZM62.5 120 14.554 94.736a2.863 2.863 0 0 1-1.533-2.536s.021-56.513.025-56.576l13.8 6.984a5.881 5.881 0 0 0-.22 1.6v25.35a3.687 3.687 0 0 0 4.462 3.6l2.824-.608a.688.688 0 0 1 .639.2l4.329 4.52a3.687 3.687 0 0 0 6.349-2.551V52.1c0-.061.02-.117.024-.177l16.1 8.147a5.825 5.825 0 0 0 1.15.43Zm.2-62.612-15.707-7.95 49.553-25.08 16.665 8.782L65.3 57.391a2.891 2.891 0 0 1-2.6 0ZM65.5 120V60.5a5.824 5.824 0 0 0 1.154-.431l48.3-24.447.025 38.634A19.02 19.02 0 0 0 93.968 105Zm29.851-17.934a16 16 0 0 1 0-20.453l10.227 10.226Zm12.348 5.815a15.969 15.969 0 0 1-10.227-3.694L107.7 93.963l10.227 10.227a15.967 15.967 0 0 1-10.227 3.694Zm12.348-5.815L109.82 91.842l10.227-10.226a16 16 0 0 1 0 20.453Z" fill="#ffffff" opacity="1" data-original="#000000" class=""></path></g></svg>